<svg width="461" height="161" viewBox="0 0 461 161" fill="none" xmlns="http://www.w3.org/2000/svg">
<rect x="385" y="27" width="75" height="116" fill="#18181B"/>
<path d="M40.192 134.536C33.4507 134.536 27.4347 132.957 22.144 129.8C16.8533 126.557 12.672 122.163 9.6 116.616C6.528 111.069 4.992 104.925 4.992 98.184C4.992 91.3573 6.528 85.2133 9.6 79.752C12.672 74.2907 16.8533 69.9387 22.144 66.696C27.52 63.4533 33.4933 61.832 40.064 61.832C45.3547 61.832 50.048 62.8987 54.144 65.032C58.3253 67.08 61.6107 69.9813 64 73.736L61.44 77.192V36.104H78.208V133H62.336V119.56L64.128 122.888C61.7387 126.643 58.4107 129.544 54.144 131.592C49.8773 133.555 45.2267 134.536 40.192 134.536ZM41.984 119.176C45.824 119.176 49.1947 118.28 52.096 116.488C54.9973 114.696 57.2587 112.221 58.88 109.064C60.5867 105.907 61.44 102.28 61.44 98.184C61.44 94.1733 60.5867 90.5893 58.88 87.432C57.2587 84.1893 54.9973 81.672 52.096 79.88C49.1947 78.088 45.824 77.192 41.984 77.192C38.2293 77.192 34.8587 78.1307 31.872 80.008C28.8853 81.8 26.5387 84.2747 24.832 87.432C23.2107 90.504 22.4 94.088 22.4 98.184C22.4 102.28 23.2107 105.907 24.832 109.064C26.5387 112.221 28.8853 114.696 31.872 116.488C34.8587 118.28 38.2293 119.176 41.984 119.176ZM85.488 133V63.368H102.256V133H85.488ZM85.488 55.56V37.64H102.256V55.56H85.488ZM135.914 134.536C128.49 134.536 122.005 132.787 116.458 129.288C110.997 125.704 107.242 120.883 105.194 114.824L117.738 108.808C119.53 112.733 122.005 115.805 125.162 118.024C128.405 120.243 131.989 121.352 135.914 121.352C138.986 121.352 141.418 120.669 143.21 119.304C145.002 117.939 145.898 116.147 145.898 113.928C145.898 112.563 145.514 111.453 144.746 110.6C144.063 109.661 143.082 108.893 141.802 108.296C140.607 107.613 139.285 107.059 137.834 106.632L126.442 103.432C120.554 101.725 116.074 99.1227 113.002 95.624C110.015 92.1253 108.522 87.9867 108.522 83.208C108.522 78.9413 109.589 75.2293 111.722 72.072C113.941 68.8293 116.97 66.312 120.81 64.52C124.735 62.728 129.215 61.832 134.25 61.832C140.821 61.832 146.623 63.4107 151.658 66.568C156.693 69.7253 160.277 74.1627 162.41 79.88L149.61 85.896C148.415 82.7387 146.41 80.2213 143.594 78.344C140.778 76.4667 137.621 75.528 134.122 75.528C131.306 75.528 129.087 76.168 127.466 77.448C125.845 78.728 125.034 80.392 125.034 82.44C125.034 83.72 125.375 84.8293 126.058 85.768C126.741 86.7067 127.679 87.4747 128.874 88.072C130.154 88.6693 131.605 89.224 133.226 89.736L144.362 93.064C150.079 94.7707 154.474 97.3307 157.546 100.744C160.703 104.157 162.282 108.339 162.282 113.288C162.282 117.469 161.173 121.181 158.954 124.424C156.735 127.581 153.663 130.056 149.738 131.848C145.813 133.64 141.205 134.536 135.914 134.536ZM200.384 134.536C193.472 134.536 187.243 132.957 181.696 129.8C176.235 126.557 171.925 122.205 168.768 116.744C165.611 111.197 164.032 104.968 164.032 98.056C164.032 91.144 165.611 84.9573 168.768 79.496C171.925 74.0347 176.235 69.7253 181.696 66.568C187.243 63.4107 193.472 61.832 200.384 61.832C205.333 61.832 209.941 62.728 214.208 64.52C218.475 66.2267 222.144 68.616 225.216 71.688C228.373 74.6747 230.635 78.2587 232 82.44L217.28 88.84C216 85.3413 213.824 82.5253 210.752 80.392C207.765 78.2587 204.309 77.192 200.384 77.192C196.715 77.192 193.429 78.088 190.528 79.88C187.712 81.672 185.493 84.1467 183.872 87.304C182.251 90.4613 181.44 94.088 181.44 98.184C181.44 102.28 182.251 105.907 183.872 109.064C185.493 112.221 187.712 114.696 190.528 116.488C193.429 118.28 196.715 119.176 200.384 119.176C204.395 119.176 207.893 118.109 210.88 115.976C213.867 113.843 216 110.984 217.28 107.4L232 114.056C230.635 117.981 228.416 121.523 225.344 124.68C222.272 127.752 218.603 130.184 214.336 131.976C210.069 133.683 205.419 134.536 200.384 134.536ZM270.451 134.536C263.624 134.536 257.395 132.957 251.763 129.8C246.216 126.643 241.779 122.333 238.451 116.872C235.208 111.411 233.587 105.181 233.587 98.184C233.587 91.1867 235.208 84.9573 238.451 79.496C241.779 74.0347 246.216 69.7253 251.763 66.568C257.31 63.4107 263.539 61.832 270.451 61.832C277.278 61.832 283.464 63.4107 289.011 66.568C294.558 69.7253 298.952 74.0347 302.195 79.496C305.523 84.872 307.187 91.1013 307.187 98.184C307.187 105.181 305.523 111.411 302.195 116.872C298.867 122.333 294.43 126.643 288.883 129.8C283.336 132.957 277.192 134.536 270.451 134.536ZM270.451 119.176C274.206 119.176 277.491 118.28 280.307 116.488C283.208 114.696 285.47 112.221 287.091 109.064C288.798 105.821 289.651 102.195 289.651 98.184C289.651 94.088 288.798 90.504 287.091 87.432C285.47 84.2747 283.208 81.8 280.307 80.008C277.491 78.1307 274.206 77.192 270.451 77.192C266.611 77.192 263.24 78.1307 260.339 80.008C257.438 81.8 255.134 84.2747 253.427 87.432C251.806 90.504 250.995 94.088 250.995 98.184C250.995 102.195 251.806 105.821 253.427 109.064C255.134 112.221 257.438 114.696 260.339 116.488C263.24 118.28 266.611 119.176 270.451 119.176ZM343.967 134.536C337.226 134.536 331.21 132.957 325.919 129.8C320.628 126.557 316.447 122.163 313.375 116.616C310.303 111.069 308.767 104.925 308.767 98.184C308.767 91.3573 310.303 85.2133 313.375 79.752C316.447 74.2907 320.628 69.9387 325.919 66.696C331.295 63.4533 337.268 61.832 343.839 61.832C349.13 61.832 353.823 62.8987 357.919 65.032C362.1 67.08 365.386 69.9813 367.775 73.736L365.215 77.192V36.104H381.983V133H366.111V119.56L367.903 122.888C365.514 126.643 362.186 129.544 357.919 131.592C353.652 133.555 349.002 134.536 343.967 134.536ZM345.759 119.176C349.599 119.176 352.97 118.28 355.871 116.488C358.772 114.696 361.034 112.221 362.655 109.064C364.362 105.907 365.215 102.28 365.215 98.184C365.215 94.1733 364.362 90.5893 362.655 87.432C361.034 84.1893 358.772 81.672 355.871 79.88C352.97 78.088 349.599 77.192 345.759 77.192C342.004 77.192 338.634 78.1307 335.647 80.008C332.66 81.8 330.314 84.2747 328.607 87.432C326.986 90.504 326.175 94.088 326.175 98.184C326.175 102.28 326.986 105.907 328.607 109.064C330.314 112.221 332.66 114.696 335.647 116.488C338.634 118.28 342.004 119.176 345.759 119.176Z" fill="#18181B"/>
<path d="M422.832 134.536C415.664 134.536 409.392 132.915 404.016 129.672C398.64 126.429 394.459 122.035 391.472 116.488C388.485 110.941 386.992 104.797 386.992 98.056C386.992 91.0587 388.485 84.872 391.472 79.496C394.544 74.0347 398.683 69.7253 403.888 66.568C409.179 63.4107 415.067 61.832 421.552 61.832C427.013 61.832 431.792 62.728 435.888 64.52C440.069 66.312 443.611 68.7867 446.512 71.944C449.413 75.1013 451.632 78.728 453.168 82.824C454.704 86.8347 455.472 91.1867 455.472 95.88C455.472 97.0747 455.387 98.312 455.216 99.592C455.131 100.872 454.917 101.981 454.576 102.92H400.816V90.12H445.104L437.168 96.136C437.936 92.2107 437.723 88.712 436.528 85.64C435.419 82.568 433.541 80.136 430.896 78.344C428.336 76.552 425.221 75.656 421.552 75.656C418.053 75.656 414.939 76.552 412.208 78.344C409.477 80.0507 407.387 82.6107 405.936 86.024C404.571 89.352 404.059 93.4053 404.4 98.184C404.059 102.451 404.613 106.248 406.064 109.576C407.6 112.819 409.819 115.336 412.72 117.128C415.707 118.92 419.12 119.816 422.96 119.816C426.8 119.816 430.043 119.005 432.688 117.384C435.419 115.763 437.552 113.587 439.088 110.856L452.656 117.512C451.291 120.84 449.157 123.784 446.256 126.344C443.355 128.904 439.899 130.909 435.888 132.36C431.963 133.811 427.611 134.536 422.832 134.536Z" fill="#FAFAF7"/>
</svg>
