<svg width="79" height="161" viewBox="0 0 79 161" fill="none" xmlns="http://www.w3.org/2000/svg">
<rect x="3" y="27" width="75" height="116" fill="#18181B"/>
<path d="M40.832 134.536C33.664 134.536 27.392 132.915 22.016 129.672C16.64 126.429 12.4587 122.035 9.472 116.488C6.48533 110.941 4.992 104.797 4.992 98.056C4.992 91.0587 6.48533 84.872 9.472 79.496C12.544 74.0347 16.6827 69.7253 21.888 66.568C27.1787 63.4107 33.0667 61.832 39.552 61.832C45.0133 61.832 49.792 62.728 53.888 64.52C58.0693 66.312 61.6107 68.7867 64.512 71.944C67.4133 75.1013 69.632 78.728 71.168 82.824C72.704 86.8347 73.472 91.1867 73.472 95.88C73.472 97.0747 73.3867 98.312 73.216 99.592C73.1307 100.872 72.9173 101.981 72.576 102.92H18.816V90.12H63.104L55.168 96.136C55.936 92.2107 55.7227 88.712 54.528 85.64C53.4187 82.568 51.5413 80.136 48.896 78.344C46.336 76.552 43.2213 75.656 39.552 75.656C36.0533 75.656 32.9387 76.552 30.208 78.344C27.4773 80.0507 25.3867 82.6107 23.936 86.024C22.5707 89.352 22.0587 93.4053 22.4 98.184C22.0587 102.451 22.6133 106.248 24.064 109.576C25.6 112.819 27.8187 115.336 30.72 117.128C33.7067 118.92 37.12 119.816 40.96 119.816C44.8 119.816 48.0427 119.005 50.688 117.384C53.4187 115.763 55.552 113.587 57.088 110.856L70.656 117.512C69.2907 120.84 67.1573 123.784 64.256 126.344C61.3547 128.904 57.8987 130.909 53.888 132.36C49.9627 133.811 45.6107 134.536 40.832 134.536Z" fill="#FAFAF7"/>
</svg>
